<svg width="600" height="400" viewBox="0 0 600 400" fill="none" xmlns="http://www.w3.org/2000/svg">
  <!-- Background -->
  <rect width="600" height="400" rx="12" fill="#f8fafc"/>

  <!-- Header -->
  <rect x="0" y="0" width="600" height="60" fill="#1e40af" rx="12"/>
  <text x="24" y="38" font-family="system-ui, sans-serif" font-size="18" font-weight="600" fill="white">CRM Dashboard</text>

  <!-- Navigation -->
  <rect x="0" y="60" width="600" height="40" fill="#f1f5f9"/>
  <circle cx="30" cy="80" r="6" fill="#3b82f6"/>
  <text x="44" y="85" font-family="system-ui, sans-serif" font-size="12" fill="#64748b">Dashboard</text>
  <circle cx="120" cy="80" r="6" fill="#64748b"/>
  <text x="134" y="85" font-family="system-ui, sans-serif" font-size="12" fill="#64748b">Leads</text>
  <circle cx="180" cy="80" r="6" fill="#64748b"/>
  <text x="194" y="85" font-family="system-ui, sans-serif" font-size="12" fill="#64748b">Contacts</text>
  <circle cx="260" cy="80" r="6" fill="#64748b"/>
  <text x="274" y="85" font-family="system-ui, sans-serif" font-size="12" fill="#64748b">Opportunities</text>

  <!-- Main Content Area -->
  <rect x="24" y="120" width="352" height="256" fill="white" stroke="#e2e8f0" stroke-width="1" rx="8"/>
  <rect x="392" y="120" width="184" height="256" fill="white" stroke="#e2e8f0" stroke-width="1" rx="8"/>

  <!-- Stats Cards -->
  <rect x="40" y="136" width="80" height="60" fill="#eff6ff" stroke="#bfdbfe" stroke-width="1" rx="6"/>
  <text x="50" y="150" font-family="system-ui, sans-serif" font-size="10" font-weight="500" fill="#1e40af">Total Leads</text>
  <text x="50" y="165" font-family="system-ui, sans-serif" font-size="16" font-weight="700" fill="#1e40af">2,847</text>

  <rect x="140" y="136" width="80" height="60" fill="#f0fdf4" stroke="#bbf7d0" stroke-width="1" rx="6"/>
  <text x="150" y="150" font-family="system-ui, sans-serif" font-size="10" font-weight="500" fill="#166534">Contacts</text>
  <text x="150" y="165" font-family="system-ui, sans-serif" font-size="16" font-weight="700" fill="#166534">1,429</text>

  <rect x="240" y="136" width="80" height="60" fill="#fef3c7" stroke="#fde68a" stroke-width="1" rx="6"/>
  <text x="250" y="150" font-family="system-ui, sans-serif" font-size="10" font-weight="500" fill="#92400e">Opportunities</text>
  <text x="250" y="165" font-family="system-ui, sans-serif" font-size="16" font-weight="700" fill="#92400e">342</text>

  <rect x="340" y="136" width="24" height="60" fill="#f3f4f6" stroke="#d1d5db" stroke-width="1" rx="6"/>
  <circle cx="352" cy="148" r="3" fill="#10b981"/>
  <text x="348" y="165" font-family="system-ui, sans-serif" font-size="8" font-weight="500" fill="#374151" text-anchor="middle">AI</text>

  <!-- Sales Pipeline Chart -->
  <rect x="40" y="212" width="312" height="140" fill="#f8fafc" stroke="#e2e8f0" stroke-width="1" rx="6"/>
  <text x="50" y="230" font-family="system-ui, sans-serif" font-size="12" font-weight="600" fill="#374151">Sales Pipeline</text>

  <!-- Pipeline Stages -->
  <rect x="50" y="240" width="40" height="8" fill="#3b82f6" rx="4"/>
  <text x="50" y="255" font-family="system-ui, sans-serif" font-size="8" fill="#6b7280">Prospect</text>
  <text x="50" y="265" font-family="system-ui, sans-serif" font-size="10" font-weight="600" fill="#1f2937">847</text>

  <rect x="110" y="240" width="35" height="8" fill="#8b5cf6" rx="4"/>
  <text x="110" y="255" font-family="system-ui, sans-serif" font-size="8" fill="#6b7280">Qualified</text>
  <text x="110" y="265" font-family="system-ui, sans-serif" font-size="10" font-weight="600" fill="#1f2937">623</text>

  <rect x="165" y="240" width="30" height="8" fill="#f59e0b" rx="4"/>
  <text x="165" y="255" font-family="system-ui, sans-serif" font-size="8" fill="#6b7280">Proposal</text>
  <text x="165" y="265" font-family="system-ui, sans-serif" font-size="10" font-weight="600" fill="#1f2937">234</text>

  <rect x="215" y="240" width="25" height="8" fill="#10b981" rx="4"/>
  <text x="215" y="255" font-family="system-ui, sans-serif" font-size="8" fill="#6b7280">Closed</text>
  <text x="215" y="265" font-family="system-ui, sans-serif" font-size="10" font-weight="600" fill="#1f2937">189</text>

  <!-- Recent Activities -->
  <text x="50" y="290" font-family="system-ui, sans-serif" font-size="12" font-weight="600" fill="#374151">Recent Activities</text>

  <!-- Activity Items -->
  <circle cx="60" cy="305" r="4" fill="#3b82f6"/>
  <text x="72" y="310" font-family="system-ui, sans-serif" font-size="10" fill="#374151">New lead: Sarah Johnson</text>

  <circle cx="60" cy="325" r="4" fill="#10b981"/>
  <text x="72" y="330" font-family="system-ui, sans-serif" font-size="10" fill="#374151">Deal closed: $45,000</text>

  <circle cx="60" cy="345" r="4" fill="#f59e0b"/>
  <text x="72" y="350" font-family="system-ui, sans-serif" font-size="10" fill="#374151">Meeting scheduled with TechCorp</text>

  <!-- Right Sidebar -->
  <text x="408" y="138" font-family="system-ui, sans-serif" font-size="12" font-weight="600" fill="#374151">AI Agent Status</text>

  <!-- AI Agent Indicator -->
  <circle cx="408" cy="160" r="8" fill="#10b981"/>
  <text x="422" y="165" font-family="system-ui, sans-serif" font-size="11" font-weight="500" fill="#166534">Online</text>
  <text x="408" y="180" font-family="system-ui, sans-serif" font-size="9" fill="#6b7280">Processing 12 conversations</text>

  <!-- Quick Actions -->
  <text x="408" y="205" font-family="system-ui, sans-serif" font-size="12" font-weight="600" fill="#374151">Quick Actions</text>

  <rect x="408" y="215" width="140" height="24" fill="#f8fafc" stroke="#e2e8f0" stroke-width="1" rx="4"/>
  <text x="418" y="230" font-family="system-ui, sans-serif" font-size="10" fill="#374151">📧 Send Email Campaign</text>

  <rect x="408" y="245" width="140" height="24" fill="#f8fafc" stroke="#e2e8f0" stroke-width="1" rx="4"/>
  <text x="418" y="260" font-family="system-ui, sans-serif" font-size="10" fill="#374151">📊 Generate Report</text>

  <rect x="408" y="275" width="140" height="24" fill="#f8fafc" stroke="#e2e8f0" stroke-width="1" rx="4"/>
  <text x="418" y="290" font-family="system-ui, sans-serif" font-size="10" fill="#374151">📞 Schedule Call</text>

  <!-- Performance Metrics -->
  <text x="408" y="315" font-family="system-ui, sans-serif" font-size="12" font-weight="600" fill="#374151">This Month</text>

  <rect x="408" y="325" width="60" height="30" fill="#eff6ff" rx="4"/>
  <text x="418" y="340" font-family="system-ui, sans-serif" font-size="8" fill="#1e40af">Conversion</text>
  <text x="418" y="350" font-family="system-ui, sans-serif" font-size="12" font-weight="700" fill="#1e40af">24.5%</text>

  <rect x="478" y="325" width="60" height="30" fill="#f0fdf4" rx="4"/>
  <text x="488" y="340" font-family="system-ui, sans-serif" font-size="8" fill="#166534">Revenue</text>
  <text x="488" y="350" font-family="system-ui, sans-serif" font-size="12" font-weight="700" fill="#166534">$127K</text>

  <!-- Floating notification -->
  <rect x="480" y="20" width="100" height="30" fill="#10b981" rx="15"/>
  <text x="490" y="38" font-family="system-ui, sans-serif" font-size="10" font-weight="500" fill="white">3 New Leads</text>
</svg>
